<?xml version="1.0" encoding="UTF-8" standalone="no"?>
<svg width="46px" height="58px" viewBox="0 0 46 58" version="1.1" xmlns="http://www.w3.org/2000/svg" xmlns:xlink="http://www.w3.org/1999/xlink" xmlns:sketch="http://www.bohemiancoding.com/sketch/ns">
    <!-- Generator: Sketch 3.5.2 (25235) - http://www.bohemiancoding.com/sketch -->
    <title>Rectangle 226 + Rectangle 226 + award_icon</title>
    <desc>Created with Sketch.</desc>
    <defs></defs>
    <g id="-" stroke="none" stroke-width="1" fill="none" fill-rule="evenodd" sketch:type="MSPage">
        <g id="Service-Company" sketch:type="MSArtboardGroup" transform="translate(-186.000000, -1635.000000)">
            <g id="Group" sketch:type="MSLayerGroup" transform="translate(186.000000, 1440.000000)">
                <g id="Rectangle-226-+-Rectangle-226-+-award_icon" transform="translate(0.000000, 196.000000)" sketch:type="MSShapeGroup">
                    <rect id="Rectangle-226" fill="#D7D7D7" x="0" y="4" width="42" height="53" rx="1"></rect>
                    <rect id="Rectangle-226" stroke="#22203D" stroke-width="1.5" fill="#FFFFFF" x="3" y="0" width="42" height="53" rx="1"></rect>
                    <g id="award_icon" transform="translate(11.000000, 10.000000)">
                        <g id="Rectangle-234-+-Rectangle-234" transform="translate(0.000000, 15.000000)" stroke="#2B294D" stroke-width="1.5" fill="#FFC25F">
                            <path d="M12.9335564,2.44547178 L19.425694,19.4718517 C19.425694,19.4718517 20.6395422,16.444458 21.6851242,16.0811923 C22.8112988,15.6899264 25.9409638,17.2082566 25.9409638,17.2082566 L19.4488261,0.181876716 L12.9335564,2.44547178 Z" id="Rectangle-234"></path>
                            <path d="M7.08794643,0.108704533 L14.0235558,2.51833784 L7.53249943,19.5418818 C7.53249943,19.5418818 6.18359147,16.4679985 5.07055259,16.0812963 C3.87172168,15.6647874 0.59689007,17.1322485 0.59689007,17.1322485 L7.08794643,0.108704533 L7.08794643,0.108704533 Z" id="Rectangle-234"></path>
                        </g>
                        <path d="M6.77403739,16.840286 L7.42340517,16.840286 C9.51312679,16.840286 12.6837057,17.53479 12.6837057,17.53479 L11.0402971,22.7759659 C11.0402971,22.7759659 9.37798626,22.1671346 8.34530682,21.7695433 C7.4746158,21.4343191 6.2449149,20.0544958 6.2449149,20.0544958 L6.77403739,16.840286 Z" id="Rectangle-236" fill="#CF8B20"></path>
                        <path d="M16.1426339,18.7040492 C16.1426339,18.7040492 16.3279626,19.181371 16.447196,19.181371 C18.5369176,19.181371 20.5345773,21.2313407 20.5345773,21.2313407 L19.9574847,22.9491314 C19.9574847,22.9491314 18.1468982,22.1671346 17.1142187,21.7695433 C16.2435277,21.4343191 15.4062151,20.6726946 15.4062151,20.6726946 L16.1426339,18.7040492 Z" id="Rectangle-236" fill="#CF8B20" transform="translate(17.970396, 20.826590) scale(-1, 1) translate(-17.970396, -20.826590) "></path>
                        <path d="M13.2285714,22 C19.3037037,22 24.2285714,17.0751322 24.2285714,11 C24.2285714,4.92486775 19.3037037,0 13.2285714,0 C7.15343918,0 2.22857143,4.92486775 2.22857143,11 C2.22857143,17.0751322 7.15343918,22 13.2285714,22 Z M6.95316297,9.261355 C6.81471413,9.27798858 6.69229621,9.3698349 6.64638949,9.50941236 C6.60048277,9.64898983 6.64638949,9.79435289 6.74840442,9.8861992 C7.88951432,10.919651 9.60409387,12.4672975 9.60409387,12.4672975 C9.60409387,12.4672975 9.13336782,14.718617 8.8214936,16.220702 C8.79526119,16.3566634 8.8448113,16.5005801 8.96431451,16.5866408 C9.08308903,16.6727015 9.23611143,16.6741479 9.35634332,16.6068904 C10.7000257,15.8489775 12.7126346,14.7092154 12.7126346,14.7092154 C12.7126346,14.7092154 14.7259722,15.8489775 16.0674686,16.6076136 C16.1898865,16.6741479 16.3429089,16.6727015 16.4616834,16.5866408 C16.5811866,16.5005801 16.6307367,16.3566634 16.6037756,16.2214252 C16.2919014,14.718617 15.8233614,12.4672975 15.8233614,12.4672975 C15.8233614,12.4672975 17.537941,10.919651 18.6790508,9.8883688 C18.7810658,9.79362969 18.8262438,9.64826663 18.7810658,9.50941236 C18.7358877,9.37055809 18.6134698,9.27871178 18.475021,9.2628014 C16.9389676,9.09212636 14.6356161,8.8390066 14.6356161,8.8390066 C14.6356161,8.8390066 13.6810478,6.743175 13.0449118,5.34595393 C12.9851602,5.22084045 12.8598276,5.13333333 12.7126346,5.13333333 C12.5654416,5.13333333 12.4393803,5.22156365 12.3825434,5.34595393 C11.7456788,6.743175 10.7918392,8.8390066 10.7918392,8.8390066 C10.7918392,8.8390066 8.48921639,9.09212636 6.95316297,9.261355 Z" id="Oval-98" stroke="#312F56" stroke-width="1.5" fill="#BEE0E6"></path>
                    </g>
                </g>
            </g>
        </g>
    </g>
</svg>