<?xml version="1.0" encoding="UTF-8" standalone="no"?>
<svg width="46px" height="64px" viewBox="0 0 46 64" version="1.1" xmlns="http://www.w3.org/2000/svg" xmlns:xlink="http://www.w3.org/1999/xlink" xmlns:sketch="http://www.bohemiancoding.com/sketch/ns">
    <!-- Generator: Sketch 3.5.2 (25235) - http://www.bohemiancoding.com/sketch -->
    <title>clipboard</title>
    <desc>Created with Sketch.</desc>
    <defs></defs>
    <g id="-" stroke="none" stroke-width="1" fill="none" fill-rule="evenodd" sketch:type="MSPage">
        <g id="Service-Company" sketch:type="MSArtboardGroup" transform="translate(-188.000000, -1440.000000)">
            <g id="Group" sketch:type="MSLayerGroup" transform="translate(186.000000, 1440.000000)">
                <g id="clipboard" transform="translate(2.000000, 0.000000)" sketch:type="MSShapeGroup">
                    <rect id="Rectangle-564" stroke="#979797" fill="#D8D8D8" x="25" y="23" width="17" height="3"></rect>
                    <g id="Rectangle-226-+-Rectangle-226" transform="translate(0.000000, 7.000000)">
                        <rect id="Rectangle-226" fill="#D7D7D7" x="0" y="4" width="42" height="53" rx="1"></rect>
                        <rect id="Rectangle-226" stroke="#22203D" stroke-width="1.5" fill="#FFFFFF" x="3" y="0" width="42" height="53" rx="1"></rect>
                    </g>
                    <g id="Rectangle-565-+-Oval-164" transform="translate(8.000000, 0.000000)" stroke="#1F1D36" stroke-width="1.5" fill="#D1D1D1">
                        <path d="M11.7177834,3.39428571 L2.39986045,3.39428571 C1.07920733,3.39428571 0,4.46824154 0,5.7930332 L0,10.8012522 C0,12.13195 1.07445412,13.1999996 2.39986045,13.1999996 L30.6001395,13.1999996 C31.9207927,13.1999996 33,12.1260438 33,10.8012522 L33,5.7930332 C33,4.4623354 31.9255459,3.39428571 30.6001395,3.39428571 L20.5344333,3.39428571 C20.0291432,1.44231435 18.2470291,0 16.1261084,0 C14.0051876,0 12.2230735,1.44231435 11.7177834,3.39428571 Z" id="Rectangle-565"></path>
                    </g>
                    <path d="M12.0654267,23.4759368 L14.0717578,25.792234 L19.9845735,19 L22.0500002,21.3722465 L14.0818235,30.5479168 L10,25.8481832 L12.0654267,23.4759368 Z" id="Check-2-Copy-6" stroke="#1F1D36" fill="#26AE6D"></path>
                    <path d="M12.0654267,35.4759368 L14.0717578,37.792234 L19.9845735,31 L22.0500002,33.3722465 L14.0818235,42.5479168 L10,37.8481832 L12.0654267,35.4759368 Z" id="Check-2-Copy-6" stroke="#1F1D36" fill="#26AE6D"></path>
                    <path d="M12.0654267,46.4759368 L14.0717578,48.792234 L19.9845735,42 L22.0500002,44.3722465 L14.0818235,53.5479168 L10,48.8481832 L12.0654267,46.4759368 Z" id="Check-2-Copy-6" stroke="#1F1D36" fill="#26AE6D"></path>
                    <path d="M26.5,24.5 L37.5,24.5" id="Line" stroke="#D1D1D1" stroke-width="3" stroke-linecap="square"></path>
                    <path d="M26.5,35.5 L37.5,35.5" id="Line" stroke="#D1D1D1" stroke-width="3" stroke-linecap="square"></path>
                    <path d="M26.5,47.5 L37.5,47.5" id="Line" stroke="#D1D1D1" stroke-width="3" stroke-linecap="square"></path>
                    <circle id="Oval-164" fill="#262445" cx="24" cy="6" r="2"></circle>
                </g>
            </g>
        </g>
    </g>
</svg>