<?xml version="1.0" encoding="UTF-8" standalone="no"?>
<svg width="15px" height="44px" viewBox="0 0 15 44" version="1.1" xmlns="http://www.w3.org/2000/svg" xmlns:xlink="http://www.w3.org/1999/xlink" xmlns:sketch="http://www.bohemiancoding.com/sketch/ns">
    <!-- Generator: Sketch 3.4.4 (17249) - http://www.bohemiancoding.com/sketch -->
    <title>Shape</title>
    <desc>Created with Sketch.</desc>
    <defs></defs>
    <g id="wires" stroke="none" stroke-width="1" fill="none" fill-rule="evenodd" sketch:type="MSPage">
        <g id="Desktop-HD" sketch:type="MSArtboardGroup" transform="translate(-713.000000, -1014.000000)" fill="#545454">
            <g id="Question" sketch:type="MSLayerGroup" transform="translate(0.000000, 1028.000000)">
                <path d="M720.5,-14 C718.761787,-14 717.243894,-12.696048 716.204374,-10.7752712 C715.352309,-9.21395223 714.806378,-7.22348454 714.619533,-4.99337824 L714.58545,-4.99337824 C713.715735,-4.99337824 713,-4.27262842 713,-3.39843653 L713,20.0879818 C713,20.8937055 713.614096,21.5631042 714.397996,21.6664178 L714.397996,24.0505775 C713.614096,24.1532798 713,24.8226785 713,25.6455192 L713,27.9960562 C713,28.8537423 713.716343,29.5916092 714.58545,29.5916092 L726.431591,29.5916092 C727.301307,29.5916092 728,28.8537423 728,27.9960562 L728,25.6455192 C728,24.8220671 727.385904,24.1532798 726.602004,24.0505775 L726.602004,21.6664178 C727.385904,21.5631042 728,20.8937055 728,20.0879818 L728,-3.39843653 C728,-4.27323974 727.301307,-4.99337824 726.431591,-4.99337824 L726.380467,-4.99337824 C726.193013,-7.22348454 725.647691,-9.21395223 724.795626,-10.7752712 C723.756106,-12.696048 722.255863,-14 720.5,-14 L720.5,-14 L720.5,-14 Z M720.5,-13.0224945 C721.778706,-13.0224945 723.02333,-12.0443777 723.960602,-10.3118883 C724.71042,-8.92235116 725.239309,-7.06943115 725.426154,-4.99337824 L715.573846,-4.99337824 C715.7613,-7.06943115 716.28958,-8.92235116 717.039398,-10.3118883 C717.99432,-12.0443777 719.221294,-13.0224945 720.5,-13.0224945 L720.5,-13.0224945 L720.5,-13.0224945 Z M714.58545,-4.0329898 L726.431591,-4.0329898 C726.773026,-4.0329898 727.045687,-3.74138873 727.045687,-3.39843653 L727.045687,20.0879818 C727.045687,20.4480511 726.773026,20.7054181 726.431591,20.7054181 L714.58545,20.7054181 C714.226974,20.7054181 713.954313,20.4480511 713.954313,20.0879818 L713.954313,-3.39843653 C713.954313,-3.74138873 714.226974,-4.0329898 714.58545,-4.0329898 L714.58545,-4.0329898 L714.58545,-4.0329898 Z M715.352309,21.6835349 L725.647691,21.6835349 L725.647691,24.0340718 L715.352309,24.0340718 L715.352309,21.6835349 L715.352309,21.6835349 L715.352309,21.6835349 Z M714.58545,25.0115773 L726.431591,25.0115773 C726.773026,25.0115773 727.045687,25.2860613 727.045687,25.6461305 L727.045687,27.9966675 C727.045687,28.340231 726.773026,28.6318321 726.431591,28.6318321 L714.58545,28.6318321 C714.226974,28.6318321 713.954313,28.3396197 713.954313,27.9966675 L713.954313,25.6461305 C713.954313,25.2860613 714.226974,25.0115773 714.58545,25.0115773 L714.58545,25.0115773 L714.58545,25.0115773 Z" id="Shape" sketch:type="MSShapeGroup" transform="translate(720.500000, 7.795805) scale(1, -1) translate(-720.500000, -7.795805) "></path>
            </g>
        </g>
    </g>
</svg>