<?xml version="1.0" encoding="UTF-8" standalone="no"?>
<svg width="464px" height="168px" viewBox="0 0 464 168" version="1.1" xmlns="http://www.w3.org/2000/svg" xmlns:xlink="http://www.w3.org/1999/xlink" xmlns:sketch="http://www.bohemiancoding.com/sketch/ns">
    <!-- Generator: Sketch 3.5.2 (25235) - http://www.bohemiancoding.com/sketch -->
    <title>Group + +1267 + From last Year</title>
    <desc>Created with Sketch.</desc>
    <defs></defs>
    <g id="Page-1" stroke="none" stroke-width="1" fill="none" fill-rule="evenodd" sketch:type="MSPage">
        <g id="Artboard-3" sketch:type="MSArtboardGroup" transform="translate(-187.000000, -364.000000)">
            <g id="Group-+-+1267-+-From-last-Year" sketch:type="MSLayerGroup" transform="translate(187.000000, 364.000000)">
                <g id="Group" sketch:type="MSShapeGroup">
                    <rect id="Rectangle-4" fill="#E3E3E3" x="0" y="0" width="40.832" height="167.4375" rx="2"></rect>
                    <rect id="Rectangle-4-Copy" fill="#E3E3E3" x="70.528" y="0" width="40.832" height="167.4375" rx="2"></rect>
                    <rect id="Rectangle-4-Copy-2" fill="#E3E3E3" x="141.056" y="0" width="40.832" height="167.4375" rx="2"></rect>
                    <rect id="Rectangle-4-Copy-3" fill="#E3E3E3" x="211.584" y="0" width="40.832" height="167.4375" rx="2"></rect>
                    <rect id="Rectangle-4-Copy-4" fill="#E3E3E3" x="282.112" y="0" width="40.832" height="167.4375" rx="2"></rect>
                    <rect id="Rectangle-4-Copy-5" fill="#E3E3E3" x="352.64" y="0" width="40.832" height="167.4375" rx="2"></rect>
                    <rect id="Rectangle-4-Copy-6" fill="#E3E3E3" x="423.168" y="0" width="40.832" height="167.4375" rx="2"></rect>
                    <rect id="Rectangle-4" fill="#0033CC" x="0" y="53.4375" width="40.832" height="114" rx="2"></rect>
                    <rect id="Rectangle-4-Copy" fill="#0033CC" x="70.528" y="110.4375" width="40.832" height="57" rx="2"></rect>
                    <rect id="Rectangle-4-Copy-2" fill="#0033CC" x="141.056" y="53.4375" width="40.832" height="114" rx="2"></rect>
                    <rect id="Rectangle-4-Copy-3" fill="#0033CC" x="211.584" y="32.0625" width="40.832" height="135.375" rx="2"></rect>
                    <rect id="Rectangle-4-Copy-4" fill="#0033CC" x="282.112" y="78.375" width="40.832" height="89.0625" rx="2"></rect>
                    <rect id="Rectangle-4-Copy-5" fill="#0033CC" x="352.64" y="32.0625" width="40.832" height="135.375" rx="2"></rect>
                    <rect id="Rectangle-4-Copy-6" fill="#0033CC" x="423.168" y="53.4375" width="40.832" height="114" rx="2"></rect>
                </g>
            </g>
        </g>
    </g>
</svg>