<?xml version="1.0" encoding="UTF-8" standalone="no"?>
<svg width="67px" height="106px" viewBox="0 0 67 106" version="1.1" xmlns="http://www.w3.org/2000/svg" xmlns:xlink="http://www.w3.org/1999/xlink" xmlns:sketch="http://www.bohemiancoding.com/sketch/ns">
    <!-- Generator: Sketch 3.4.4 (17249) - http://www.bohemiancoding.com/sketch -->
    <title>Group</title>
    <desc>Created with Sketch.</desc>
    <defs></defs>
    <g id="wires" stroke="none" stroke-width="1" fill="none" fill-rule="evenodd" sketch:type="MSPage">
        <g id="noun_9488_cc" sketch:type="MSLayerGroup" transform="translate(35.500000, 47.500000) rotate(-247.000000) translate(-35.500000, -47.500000) translate(-13.000000, -1.000000)">
            <g id="Group" sketch:type="MSShapeGroup">
                <g id="Shape">
                    <path d="M96.493,15.1 C97.209,14.5 96.568,12.824 96.297,12.18 C96.19,11.925 96.039,11.729 95.882,11.586 C96.137,11.381 96.254,11.135 96.059,10.706 L94.74,7.473 C94.667,7.2 93.861,4.233 93.371,3.073 C93.092,2.416 92.58,2.001 91.933,2.121 L91.894,2.031 C91.505,1.117 90.57,-0.039 89.46,0.512 L89.231,0.607 L89.16,0.564 C89.124,0.536 89.061,0.486 88.97,0.43 C87.277,-0.631 85.616,0.635 84.525,1.906 C84.171,2.318 83.888,2.699 83.753,2.888 L49.684,17.057 C49.512,17.129 49.434,17.332 49.512,17.499 C49.586,17.659 49.651,17.813 49.706,17.966 L36.918,23.383 C36.599,23.02 36.147,22.569 35.876,22.68 C35.876,22.68 23.181,27.84 15.395,31.017 C15.124,30.735 14.811,30.509 14.402,30.413 C13.755,30.262 13.636,30.691 13.355,30.025 C13.175,29.601 12.747,29.539 12.391,29.722 C12.011,29.849 11.76,30.201 11.939,30.625 C12.22,31.289 11.835,31.075 11.494,31.64 C11.285,31.983 11.225,32.347 11.23,32.719 C10.146,33.165 9.487,33.437 9.444,33.459 C8.69,33.852 7.275,34.858 7.244,36.882 L7.24,37.262 C7.09,37.882 6.547,38.414 5.966,38.633 C4.307,39.256 3.859,39.206 2.375,38.906 C0.304,38.486 -0.607,40.244 0.431,41.062 C1.221,41.684 4.017,41.682 5.212,41.894 C7.19,42.243 7.379,42.432 8.167,44.322 C8.487,45.092 8.7,45.774 8.713,45.769 C8.877,46.35 9.005,46.955 9.053,47.546 C9.21,49.441 7.539,50.895 6.261,52.033 C3.773,53.137 -0.139,54.549 1.34,58.211 C1.651,58.982 2.181,59.193 2.986,59.055 C4.088,58.866 5.205,58.366 6.261,58.008 C8.394,57.408 10.419,56.838 12.524,58.164 C13.5,58.81 14.147,59.711 14.506,60.99 C15.398,64.783 14.842,69.672 14.771,70.097 C14.617,71.029 14.953,72.076 16.073,71.576 L16.633,71.34 C16.54,71.451 16.439,71.586 16.387,71.723 C16.238,72.116 15.921,73.827 15.655,75.77 C14.996,80.561 13.139,92.793 16.914,96.399 C17.262,96.792 17.821,97.063 18.337,96.878 L21.489,95.98 C21.489,95.98 39.302,90.507 41.338,89.876 C43.184,89.304 43.208,86.29 42.984,84.71 C42.951,84.374 41.733,72.152 41.435,69.979 C41.133,67.766 40.522,63.042 40.792,59.636 C40.851,58.903 41.163,58.231 41.616,57.617 L41.859,57.308 C42.34,56.742 42.937,56.242 43.545,55.81 C44.871,54.877 46.166,54.365 46.166,54.365 L54.064,51.021 C59.929,48.538 60.109,44.564 59.171,42.191 C58.156,39.622 56.849,36.842 58.442,34.595 C58.463,34.574 58.479,34.549 58.499,34.529 C58.842,34.076 59.358,33.704 59.822,33.508 L77.785,25.9 C78.281,25.697 78.504,25.191 78.529,24.675 L79.213,24.385 L94.609,17.866 C95.741,17.494 96.804,16.525 96.511,15.178 L96.493,15.1 L96.493,15.1 Z M54.85,48.162 C54.178,48.53 52.839,49.098 48.729,50.838 C46.696,50.164 44.967,48.672 44.079,46.575 C43.255,44.628 43.302,42.531 44.063,40.695 L49.251,38.499 L49.977,38.225 C49.977,38.225 50.259,38.12 50.714,38.052 C53.829,37.58 55.897,39.789 57.003,42.573 C58.068,45.255 55.982,47.682 54.85,48.162 L54.85,48.162 Z"></path>
                    <path d="M13.416,56.371 C13.042,56.133 11.935,55.752 11.531,55.822 C9.944,56.103 6.679,58.129 5.695,55.701 C5.382,54.93 5.399,53.861 5.632,53.031 L4.117,53.713 C1.893,54.713 1.301,56.356 1.95,57.963 C2.125,58.393 2.314,58.502 2.874,58.406 C3.945,58.218 5.042,57.724 6.068,57.377 C8.407,56.727 10.568,56.156 12.877,57.609 C13.999,58.349 14.742,59.396 15.142,60.818 C16.068,64.738 15.496,69.744 15.421,70.203 C15.369,70.514 15.248,71.244 15.81,70.974 L17.465,70.273 C17.465,67.904 17.453,65.986 17.42,64.921 C17.284,60.584 15.979,58.02 13.416,56.371 L13.416,56.371 Z" fill="#175FED"></path>
                    <path d="M17.461,71.428 C17.259,71.616 17.045,71.832 16.998,71.955 C16.389,73.547 15.547,82.164 15.445,83.559 C15.187,87.088 15.149,90.854 15.838,92.983 C16.362,94.602 16.886,95.424 17.287,95.846 C17.224,95.549 17.225,95.194 17.256,94.807 C17.262,94.363 17.441,80.398 17.461,71.428 L17.461,71.428 Z" fill="#175FED"></path>
                    <path d="M18.269,94.377 C18.277,93.791 18.589,69.537 18.433,64.492 C18.298,60.15 17.022,57.488 14.462,55.844 C12.533,54.604 10.681,53.957 6.771,54.674 C6.536,54.715 6.313,54.715 6.124,54.662 C6.145,54.926 6.199,55.197 6.302,55.455 C6.676,56.377 7.498,56.309 8.299,56.121 C9.086,55.932 10.737,55.297 11.417,55.176 C12.067,55.063 13.351,55.553 13.771,55.819 C16.573,57.622 17.936,60.424 18.077,64.901 C18.235,70.012 17.913,94.839 17.913,94.839 C17.856,95.511 17.848,96.216 18.581,96.118 L18.679,96.093 C18.279,95.705 18.217,95.059 18.269,94.377 L18.269,94.377 Z" fill="#175FED"></path>
                    <path d="M95.289,11.191 C95.351,11.152 95.424,11.107 95.488,11.059 C95.484,11.043 94.654,9.003 94.287,8.102 C94.228,8.178 94.141,8.238 94.062,8.285 L95.166,10.889 C95.204,10.98 95.245,11.082 95.289,11.191 L95.289,11.191 Z" fill="#175FED"></path>
                    <path d="M84.969,2.382 L88.498,0.913 C87.209,0.222 85.896,1.289 84.969,2.382 L84.969,2.382 Z" fill="#175FED"></path>
                    <path d="M40.813,24.756 L47.577,21.892 C49.434,21.106 50.16,20.037 49.885,18.602 L37.386,23.896 C38.27,24.704 39.653,25.199 40.813,24.756 L40.813,24.756 Z" fill="#175FED"></path>
                    <path d="M92.768,3.328 C92.643,3.038 92.454,2.801 92.206,2.762 L93.795,6.511 C93.5,5.485 93.07,4.049 92.768,3.328 L92.768,3.328 Z" fill="#175FED"></path>
                    <path d="M0.689,40.02 C0.574,40.733 1.561,40.889 2.219,40.936 C1.531,40.738 0.936,40.45 0.689,40.02 L0.689,40.02 Z" fill="#175FED"></path>
                    <path d="M4.226,40.613 L3.872,39.779 C3.448,39.786 3.042,39.745 2.681,39.66 C2.344,39.58 1.686,39.472 1.216,39.578 C1.223,40.295 4.142,40.603 4.226,40.613 L4.226,40.613 Z" fill="#175FED"></path>
                    <path d="M14.948,31.489 C13.92,30.42 13.404,31.784 12.766,30.279 C12.751,30.28 12.713,30.294 12.58,30.35 C12.559,30.358 12.554,30.357 12.543,30.367 C12.713,30.769 12.842,31.233 12.457,31.572 C12.297,31.712 12.17,31.787 12.054,31.978 C11.96,32.134 11.87,32.378 11.881,32.763 C12.408,32.664 12.967,32.497 13.528,32.26 C14.053,32.038 14.531,31.775 14.948,31.489 L14.948,31.489 Z" fill="#175FED"></path>
                    <path d="M8.499,39.379 C8.599,41.623 9.287,43.809 10.076,45.899 L17.282,42.846 L13.74,34.483 L14.451,34.704 L17.805,42.624 L18.052,42.52 L14.51,34.158 L15.221,34.377 L18.575,42.298 L18.822,42.194 L15.28,33.833 L15.992,34.052 L19.346,41.972 L19.592,41.868 L16.05,33.504 L16.761,33.725 L20.116,41.646 L20.363,41.542 L16.822,33.178 L17.532,33.398 L20.886,41.319 L21.133,41.215 L17.592,32.853 L18.304,33.073 L21.658,40.994 L21.905,40.889 L18.363,32.527 L19.074,32.747 L22.429,40.667 L22.675,40.563 L19.134,32.201 L19.844,32.422 L23.198,40.343 L23.445,40.237 L19.905,31.874 L20.616,32.094 L23.97,40.015 L24.218,39.909 L20.676,31.549 L21.387,31.769 L24.742,39.687 L24.989,39.584 L21.447,31.22 L22.159,31.441 L25.513,39.36 L25.759,39.256 L22.219,30.894 L22.93,31.115 L26.283,39.034 L26.531,38.929 L22.99,30.568 L23.701,30.789 L27.055,38.708 L27.302,38.604 L23.761,30.242 L24.472,30.463 L27.826,38.383 L28.074,38.277 L24.532,29.916 L25.243,30.137 L28.596,38.055 L28.843,37.951 L25.303,29.589 L26.014,29.81 L29.368,37.727 L29.615,37.624 L26.074,29.263 L26.785,29.483 L30.139,37.402 L30.386,37.298 L26.844,28.937 L27.556,29.157 L30.91,37.076 L31.156,36.971 L27.615,28.611 L28.327,28.831 L31.681,36.749 L76.303,17.843 C76.684,17.196 78.917,13.905 86.803,10.567 L93.579,7.697 L91.29,2.291 C91.062,1.76 90.478,0.758 89.728,1.118 L50.238,17.54 C51.138,19.826 50.3,21.455 47.833,22.5 L41.057,25.369 C41.057,25.369 40.906,25.431 40.65,25.484 C39.224,25.782 37.834,25.285 36.796,24.247 L35.921,23.373 C34.284,24.038 23.055,28.604 15.837,31.548 L15.887,31.615 C15.192,32.142 14.597,32.524 13.784,32.868 C12.935,33.227 12.213,33.393 11.308,33.517 L11.29,33.402 C10.045,33.896 8.749,34.372 8.187,35.554 C8.192,35.567 8.195,35.578 8.199,35.591 C8.571,37.08 8.43,37.846 8.499,39.379 L8.499,39.379 Z M51.539,19.208 L90.816,2.951 C91.22,2.784 91.47,3.39 91.066,3.558 L51.789,19.813 C51.385,19.983 51.133,19.375 51.539,19.208 L51.539,19.208 Z" fill="#175FED"></path>
                    <path d="M7.472,41.934 C7.725,42.137 7.976,42.483 8.211,42.896 C7.568,40.843 7.339,39.631 7.27,38.487 C6.615,39.184 5.585,39.59 4.563,39.727 L5.197,41.226 C6.148,41.379 7.063,41.607 7.472,41.934 L7.472,41.934 Z" fill="#175FED"></path>
                    <path d="M42.954,49.525 C42.958,49.521 44.809,51.896 47.768,51.17 C45.894,50.346 44.328,48.846 43.475,46.831 C42.716,45.038 42.638,43.127 43.134,41.374 C41.008,43.614 41.353,46.955 42.954,49.525 L42.954,49.525 Z" fill="#175FED"></path>
                    <path d="M57.451,35.026 L51.974,37.346 C54.665,37.551 56.551,39.669 57.611,42.328 C58.842,45.431 56.492,48.163 55.132,48.752 C54.444,49.126 53.075,49.706 48.855,51.495 C47.288,52.158 45.525,52.038 44.105,51.247 C44.206,51.443 44.285,51.65 44.329,51.864 C44.525,52.777 44.056,53.986 43.443,55.06 C44.276,54.498 45.151,54.051 45.917,53.748 L53.806,50.407 C59.335,48.064 59.368,44.472 58.56,42.425 C57.559,39.891 56.398,37.333 57.451,35.026 L57.451,35.026 Z" fill="#175FED"></path>
                    <path d="M37.036,43.919 C36.83,46.683 37.895,48.109 40.135,49.133 C39.406,45.582 39.583,42.427 41.645,39.299 C39.617,40.049 37.202,41.665 37.036,43.919 L37.036,43.919 Z" fill="#175FED"></path>
                    <path d="M37.698,57.562 C38.033,57.005 39.867,54.582 40.64,53.671 C41.217,53.05 41.656,52.417 41.963,52.079 C41.476,51.21 40.785,50.513 40.068,49.823 C39.35,49.444 38.68,49.189 38.045,48.628 C37.063,47.758 36.199,46.309 36.38,43.867 C36.596,40.946 39.823,39.072 42.325,38.389 L54.303,33.316 C55.032,33.007 55.221,32.183 55.544,31.544 C56.268,30.119 57.453,29.313 58.932,28.776 L76.908,21.165 C76.776,20.804 76.641,20.448 76.506,20.093 L76.352,19.7 L76.009,19.561 L75.534,19.369 L74.935,19.128 L9.616,46.807 C9.949,48.858 9.343,50.012 7.489,51.789 C7.319,51.952 7.16,52.1 7.027,52.225 C6.783,52.528 6.335,53.126 6.194,53.555 C6.178,53.641 6.163,53.731 6.151,53.827 C6.167,54 6.309,54.09 6.652,54.027 C10.72,53.281 12.741,53.957 14.816,55.291 C17.621,57.094 18.949,60 19.087,64.473 C19.247,69.582 18.924,94.411 18.924,94.411 C18.867,95.073 18.9,95.792 19.665,95.808 L21.303,95.34 C21.614,95.242 34.34,91.336 39.341,89.797 C39.162,87.726 37.753,71.576 37.107,65.15 C36.65,60.588 36.973,58.756 37.698,57.562 L37.698,57.562 Z M46.638,32.74 C47.27,32.471 48.001,32.769 48.269,33.402 C48.538,34.034 48.242,34.763 47.608,35.033 C46.975,35.302 46.243,35.006 45.976,34.372 C45.708,33.739 46.004,33.007 46.638,32.74 L46.638,32.74 Z M9.596,53.439 C9.125,53.64 8.58,53.418 8.381,52.948 C8.182,52.478 8.402,51.933 8.873,51.734 C9.345,51.535 9.888,51.754 10.089,52.228 C10.287,52.697 10.067,53.242 9.596,53.439 L9.596,53.439 Z M13.191,48.904 C12.72,49.104 12.176,48.884 11.976,48.412 C11.776,47.94 11.997,47.396 12.468,47.197 C12.94,46.997 13.483,47.218 13.683,47.69 C13.881,48.161 13.662,48.704 13.191,48.904 L13.191,48.904 Z M37.219,50.572 C37.448,50.283 37.751,50.045 38.114,49.892 C39.269,49.4 40.599,49.941 41.088,51.095 C41.577,52.245 41.038,53.578 39.884,54.068 C39.098,54.402 38.231,54.256 37.602,53.765 C36.36,53.913 34.706,53.994 34.569,52.4 C34.491,51.515 35.174,50.752 36.066,50.671 L37.219,50.572 L37.219,50.572 Z M18.725,49.938 C18.374,50.087 17.968,49.922 17.818,49.574 C17.67,49.22 17.835,48.816 18.186,48.667 C18.538,48.518 18.943,48.683 19.092,49.034 C19.24,49.385 19.076,49.789 18.725,49.938 L18.725,49.938 Z M37.878,90.189 C37.284,90.398 25.199,94.085 24.801,94.209 C24.102,94.465 23.158,94.43 22.836,93.59 C21.785,91.844 21.931,91.994 19.99,91.274 C19.809,91.21 19.643,91.129 19.497,90.997 C19.191,90.636 19.143,90.12 19.202,89.669 L19.483,59.542 L19.46,45.545 C19.399,44.912 19.926,44.263 20.365,43.891 C23.629,41.536 27.612,40.363 31.637,40.66 C32.592,40.731 34.284,40.733 34.537,41.96 C34.578,42.158 34.596,42.384 34.621,42.621 C34.89,45.249 35.087,47.914 35.315,50.538 C34.624,50.973 34.164,51.56 34.241,52.432 C34.323,53.389 34.79,53.764 35.623,54.057 C36.635,65.655 37.653,77.28 38.67,88.88 C38.778,89.463 38.456,89.988 37.878,90.189 L37.878,90.189 Z" fill="#175FED"></path>
                    <path d="M77.123,21.789 L59.171,29.391 C55.318,30.755 56.44,33.128 54.561,33.924 L42.7,38.947 C40.099,42.38 40.009,45.78 40.941,49.733 C41.648,50.416 42.495,51.481 42.608,51.927 C42.661,52.129 42.576,52.319 42.486,52.494 C42.007,53.01 41.611,53.598 41.129,54.115 C40.358,55.025 38.569,57.394 38.263,57.902 C37.659,58.894 37.306,60.527 37.764,65.084 C38.397,71.387 39.762,87.027 39.986,89.6 L41.143,89.245 C42.844,88.716 42.357,84.96 42.332,84.788 C42.332,84.788 41.084,72.267 40.783,70.061 C40.483,67.86 39.86,63.065 40.137,59.581 C40.212,58.638 40.651,57.759 41.29,56.977 L41.638,56.524 C41.638,56.524 42.25,55.789 42.813,54.837 C43.508,53.663 44.138,52.438 43.314,51.195 C42.16,49.458 41.536,48.705 41.083,46.436 C40.636,44.202 41.539,41.648 43.372,40.277 L58.02,34.072 L58.055,34.057 C58.503,33.522 59.151,33.075 59.748,32.821 L77.521,25.295 C77.521,25.295 77.544,25.282 77.582,25.256 C77.921,25.014 77.928,24.58 77.825,24.206 C77.641,23.391 77.396,22.585 77.123,21.789 L77.123,21.789 Z" fill="#175FED"></path>
                    <path d="M95.868,15.314 C95.508,13.66 94.917,11.986 94.56,11.144 L93.425,8.468 L87.058,11.167 C84.529,12.237 78.292,15.33 76.773,18.352 L75.812,18.759 C76.308,18.952 76.851,19.189 76.909,19.332 C76.909,19.332 76.996,19.548 77.117,19.859 C77.637,21.202 78.118,22.586 78.456,23.99 L94.365,17.252 L94.396,17.241 C94.486,17.213 96.16,16.656 95.868,15.314 L95.868,15.314 Z" fill="#175FED"></path>
                    <path d="M36.285,53.193 L37.043,53.13 C36.994,53.044 36.95,52.957 36.911,52.865 C36.687,52.335 36.679,51.769 36.848,51.263 L36.124,51.325 C35.57,51.373 35.18,51.84 35.223,52.346 C35.266,52.85 35.73,53.242 36.285,53.193 L36.285,53.193 Z" fill="#175FED"></path>
                    <path d="M27.613,49.382 C28.437,49.033 28.871,48.15 28.681,47.306 L25.379,48.705 C25.854,49.426 26.791,49.73 27.613,49.382 L27.613,49.382 Z" fill="#175FED"></path>
                    <path d="M26.192,46.024 C25.368,46.373 24.934,47.256 25.124,48.099 L28.426,46.701 C27.953,45.979 27.015,45.676 26.192,46.024 L26.192,46.024 Z" fill="#175FED"></path>
                    <path d="M37.873,53.133 C38.323,53.573 39.012,53.727 39.628,53.465 C40.448,53.116 40.831,52.171 40.484,51.354 C40.136,50.534 39.191,50.149 38.37,50.5 C38.11,50.608 37.893,50.776 37.731,50.985 C37.585,51.221 37.464,51.455 37.41,51.708 C37.36,52 37.389,52.312 37.511,52.604 C37.601,52.812 37.725,52.988 37.873,53.133 L37.873,53.133 Z" fill="#175FED"></path>
                    <path d="M26.991,87.707 C27.465,88.43 28.402,88.732 29.226,88.383 C30.05,88.035 30.483,87.153 30.294,86.311 L26.991,87.707 L26.991,87.707 Z" fill="#175FED"></path>
                    <path d="M34.628,50.203 C34.248,45.849 33.988,42.879 33.968,42.686 C33.894,41.972 33.976,41.756 33.27,41.556 C30.913,40.885 27.149,41.42 24.858,42.245 C23.402,42.769 22.024,43.502 20.769,44.406 C20.489,44.644 20.139,45.033 20.113,45.435 L20.112,45.474 L20.116,45.524 L20.138,59.543 L19.856,89.717 C19.856,89.717 19.831,89.887 19.841,90.072 C19.851,90.265 19.893,90.433 19.969,90.537 C20.361,90.842 21.346,90.914 22.083,91.475 C22.756,91.991 23.008,92.618 23.43,93.305 C23.609,93.809 24.191,93.737 24.585,93.588 C24.585,93.588 37.056,89.783 37.658,89.57 C37.958,89.466 38.069,89.252 38.016,88.965 C38.016,88.965 36.208,68.356 35.003,54.526 C33.21,53.75 33.125,51.314 34.628,50.203 L34.628,50.203 Z M24.621,48.671 C24.086,47.409 24.675,45.955 25.937,45.421 C27.196,44.887 28.652,45.476 29.187,46.737 C29.721,47.998 29.131,49.453 27.87,49.987 C26.609,50.52 25.154,49.932 24.621,48.671 L24.621,48.671 Z M29.482,88.988 C28.221,89.521 26.766,88.933 26.232,87.67 C25.699,86.412 26.288,84.957 27.549,84.422 C28.809,83.889 30.264,84.477 30.799,85.738 C31.332,87 30.743,88.455 29.482,88.988 L29.482,88.988 Z" fill="#175FED"></path>
                    <path d="M27.804,85.027 C26.98,85.375 26.546,86.257 26.736,87.101 L30.038,85.703 C29.564,84.982 28.627,84.68 27.804,85.027 L27.804,85.027 Z" fill="#175FED"></path>
                </g>
            </g>
        </g>
    </g>
</svg>