<?xml version="1.0" encoding="UTF-8" standalone="no"?>
<svg width="47px" height="43px" viewBox="0 0 47 43" version="1.1" xmlns="http://www.w3.org/2000/svg" xmlns:xlink="http://www.w3.org/1999/xlink" xmlns:sketch="http://www.bohemiancoding.com/sketch/ns">
    <!-- Generator: Sketch 3.5.2 (25235) - http://www.bohemiancoding.com/sketch -->
    <title>noun_197974</title>
    <desc>Created with Sketch.</desc>
    <defs></defs>
    <g id="wires" stroke="none" stroke-width="1" fill="none" fill-rule="evenodd" sketch:type="MSPage">
        <g id="Style-Tile-A-Copy-2" sketch:type="MSArtboardGroup" transform="translate(-132.000000, -578.000000)" fill="#175FED">
            <g id="noun_197974" sketch:type="MSLayerGroup" transform="translate(132.000000, 578.000000)">
                <g id="Group" sketch:type="MSShapeGroup">
                    <path d="M35.5273319,0.566957379 C32.3182557,1.99090416 30.1771865,3.09579699 28.4061,3.67567381 C24.5692141,4.93185514 18.7892634,2.00766199 15.7801577,0.588396157 C11.3590884,-1.49687608 10.0308204,2.58126632 9.80529194,4.32913525 C9.3261493,8.04178862 9.72571569,15.5602464 9.80529194,19.3028578 C9.88608524,23.1037004 12.0601084,24.1740478 13.5875979,24.8889234 C17.9260951,26.9193348 18.8225918,29.7536536 19.018443,31.9775758 C19.1948214,33.9799951 18.794506,38.0303326 19.0960532,40.0177729 C19.4605124,42.4203203 21.4763193,42.1125942 22.5194235,42.1237349 C24.4658586,42.144612 28.358916,42.1237349 30.3054447,42.1237349 C33.0984775,42.1237349 33.835728,40.2074452 35.3722986,39.5635329 C36.0511308,39.279118 36.5879428,39.4286277 36.6144371,39.097965 L36.6144371,0.471746736 C36.1968022,0.430554324 35.7493964,0.468470067 35.5273319,0.566957379 L35.5273319,0.566957379 Z M32.4498842,17.1850062 C32.4498842,17.802986 31.9488347,18.3040355 31.3309485,18.3040355 L31.2843262,18.3040355 L27.274713,18.3040355 L18.0899286,18.3040355 C17.4719488,18.3040355 16.9708992,17.802986 16.9708992,17.1850062 L16.9708992,13.175393 C16.9708992,12.5574132 17.4719488,12.0564573 18.0899286,12.0564573 L23.2779256,12.0564573 C25.6170929,11.1567775 31.2843262,9.72534122 31.2843262,9.72534122 C31.902306,9.72534122 32.4032619,10.2263907 32.4032619,10.8442769 L32.4032619,12.857088 C32.43322,12.958103 32.4498842,13.0647352 32.4498842,13.1754866 L32.4498842,17.1850062 L32.4498842,17.1850062 Z" id="Shape"></path>
                    <path d="M31.1756344,13.6781276 L31.1756344,11.7767233 C31.1756344,11.3647992 30.841695,11.0307662 30.4296773,11.0307662 C30.4296773,11.0307662 25.2215521,12.5444937 23.6621385,13.1443114 L19.0845381,13.1443114 C18.6725203,13.1443114 18.3385809,13.4782508 18.3385809,13.8902685 L18.3385809,16.5633752 C18.3385809,16.975393 18.6725203,17.3093323 19.0845381,17.3093323 L26.3266322,17.3093323 L30.4295836,17.3093323 L30.4605716,17.3093323 C30.8724957,17.3093323 31.2066223,16.975393 31.2066223,16.5633752 L31.2066223,13.8902685 C31.2067159,13.8164967 31.1955753,13.7454398 31.1756344,13.6781276 L31.1756344,13.6781276 Z" id="Shape"></path>
                    <path d="M38.0425967,6.38781966 L34.4101749,6.38781966 C34.1000148,6.38781966 33.8485538,6.53358463 33.8485538,6.71333333 L33.8485538,13.3201281 C33.8485538,13.4998768 34.1000148,13.6455482 34.4101749,13.6455482 L38.0425967,13.6455482 C38.3527568,13.6455482 38.6042178,13.4998768 38.6042178,13.3201281 L38.6042178,6.71333333 C38.6042178,6.53358463 38.3528505,6.38781966 38.0425967,6.38781966 L38.0425967,6.38781966 Z M37.5784331,12.4132397 C37.5784331,12.5436511 37.3960631,12.6492535 37.1710027,12.6492535 L34.5357182,12.6492535 C34.3107514,12.6492535 34.1282878,12.5436511 34.1282878,12.4132397 L34.1282878,7.62003449 C34.1282878,7.48962306 34.3106578,7.38392708 34.5357182,7.38392708 L37.1710027,7.38392708 C37.3959695,7.38392708 37.5784331,7.48962306 37.5784331,7.62003449 L37.5784331,12.4132397 L37.5784331,12.4132397 Z" id="Shape"></path>
                    <rect id="Rectangle-path" x="37.5784331" y="7.63894555" width="8.67203252" height="4.75557034"></rect>
                    <path d="M8.20777531,13.6454545 L11.8402907,13.6454545 C12.1503572,13.6454545 12.4018182,13.4997832 12.4018182,13.3199409 L12.4018182,6.71333333 C12.4018182,6.53349101 12.1503572,6.38781966 11.8402907,6.38781966 L8.20777531,6.38781966 C7.8977088,6.38781966 7.64615423,6.53349101 7.64615423,6.71333333 L7.64615423,13.3199409 C7.64624784,13.4997832 7.8977088,13.6454545 8.20777531,13.6454545 L8.20777531,13.6454545 Z M8.6719389,7.62003449 C8.6719389,7.48962306 8.85440256,7.38402069 9.0793693,7.38402069 L11.7146539,7.38402069 C11.9397142,7.38411431 12.1220843,7.48971668 12.1221779,7.62003449 L12.1220843,12.4131461 C12.1220843,12.5436511 11.9397142,12.6493471 11.7146539,12.6492535 L9.0793693,12.6493471 C8.85440256,12.6492535 8.6719389,12.5435575 8.6719389,12.4132397 L8.6719389,7.62003449 L8.6719389,7.62003449 Z" id="Shape"></path>
                    <rect id="Rectangle-path" x="0" y="7.63885193" width="8.6719389" height="4.75557034"></rect>
                </g>
            </g>
        </g>
    </g>
</svg>