<?xml version="1.0" encoding="UTF-8" standalone="no"?>
<svg width="73px" height="46px" viewBox="0 0 73 46" version="1.1" xmlns="http://www.w3.org/2000/svg" xmlns:xlink="http://www.w3.org/1999/xlink" xmlns:sketch="http://www.bohemiancoding.com/sketch/ns">
    <!-- Generator: Sketch 3.5.2 (25235) - http://www.bohemiancoding.com/sketch -->
    <title>Page 1</title>
    <desc>Created with Sketch.</desc>
    <defs></defs>
    <g id="wires" stroke="none" stroke-width="1" fill="none" fill-rule="evenodd" sketch:type="MSPage">
        <g id="Style-Tile-A-Copy-2" sketch:type="MSArtboardGroup" transform="translate(-70.000000, -650.000000)" fill="#175FED">
            <g id="Page-1" sketch:type="MSLayerGroup" transform="translate(70.000000, 650.000000)">
                <path d="M69.961,0.25 L3.062,0.25 C1.66,0.25 0.523,1.387 0.523,2.789 L0.523,43.461 C0.523,44.863 1.66,46 3.062,46 L69.957,46 C71.363,46 72.5,44.863 72.5,43.461 L72.5,2.789 C72.5,1.387 71.363,0.25 69.961,0.25 L69.961,0.25 Z M69.938,43.438 L3.086,43.438 L3.086,2.812 L69.934,2.812 L69.934,43.438 L69.938,43.438 Z" id="Fill-1" sketch:type="MSShapeGroup"></path>
                <path d="M26.75,31.75 C27.422,29.094 25.668,27.629 22.891,26.988 C20.172,26.363 18.301,25.129 20,23.426 C24.977,18.449 21.215,12.395 16.605,12.395 C11.992,12.395 8.273,18.449 13.25,23.426 C14.953,25.129 13.039,26.363 10.32,26.988 C7.543,27.629 5.828,29.094 6.5,31.75 L26.75,31.75 Z" id="Fill-2" sketch:type="MSShapeGroup"></path>
                <path d="M31.25,28.75 L66.5,28.75 L66.5,31.75 L31.25,31.75 L31.25,28.75 Z" id="Fill-3" sketch:type="MSShapeGroup"></path>
                <path d="M31.25,21.25 L66.5,21.25 L66.5,24.25 L31.25,24.25 L31.25,21.25 Z" id="Fill-4" sketch:type="MSShapeGroup"></path>
                <path d="M31.25,13.75 L66.5,13.75 L66.5,16.75 L31.25,16.75 L31.25,13.75 Z" id="Fill-5" sketch:type="MSShapeGroup"></path>
            </g>
        </g>
    </g>
</svg>