<?xml version="1.0" encoding="UTF-8" standalone="no"?>
<svg width="556px" height="330px" viewBox="0 0 556 330" version="1.1" xmlns="http://www.w3.org/2000/svg" xmlns:xlink="http://www.w3.org/1999/xlink" xmlns:sketch="http://www.bohemiancoding.com/sketch/ns">
    <!-- Generator: Sketch 3.4.4 (17249) - http://www.bohemiancoding.com/sketch -->
    <title>Group</title>
    <desc>Created with Sketch.</desc>
    <defs></defs>
    <g id="wires" stroke="none" stroke-width="1" fill="none" fill-rule="evenodd" sketch:type="MSPage">
        <g id="Group" sketch:type="MSLayerGroup" fill="#175FED">
            <path d="M528.580444,76.9837374 L528.580444,98.611798 C528.580444,105.037899 524.321152,110.240525 519.084222,110.240525 L302.117556,110.240525 C296.874909,110.240525 292.609899,105.037899 292.609899,98.611798 L292.609899,76.9837374 C292.609899,70.5633535 296.874909,65.3607273 302.117556,65.3607273 L519.084222,65.3607273 C524.321152,65.3550101 528.580444,70.5633535 528.580444,76.9837374 L528.580444,76.9837374 Z" id="Shape" sketch:type="MSShapeGroup"></path>
            <path d="M527.05396,239.980303 L527.05396,246.263475 C527.05396,250.722869 523.440707,254.336121 518.981313,254.336121 L302.214747,254.336121 C297.755354,254.336121 294.130667,250.722869 294.130667,246.263475 L294.130667,239.980303 C294.130667,235.526626 297.755354,231.913374 302.214747,231.913374 L518.975596,231.913374 C523.440707,231.913374 527.05396,235.526626 527.05396,239.980303 L527.05396,239.980303 Z" id="Shape" sketch:type="MSShapeGroup"></path>
            <path d="M527.05396,204.053596 L527.05396,210.331051 C527.05396,214.784727 523.440707,218.39798 518.981313,218.39798 L302.214747,218.39798 C297.755354,218.39798 294.130667,214.784727 294.130667,210.331051 L294.130667,204.053596 C294.130667,199.594202 297.755354,195.980949 302.214747,195.980949 L518.975596,195.980949 C523.440707,195.980949 527.05396,199.588485 527.05396,204.053596 L527.05396,204.053596 Z" id="Shape" sketch:type="MSShapeGroup"></path>
            <path d="M527.05396,168.115455 L527.05396,174.387192 C527.05396,178.852303 523.440707,182.459838 518.981313,182.459838 L302.214747,182.459838 C297.755354,182.459838 294.130667,178.852303 294.130667,174.387192 L294.130667,168.115455 C294.130667,163.656061 297.755354,160.037091 302.214747,160.037091 L518.975596,160.037091 C523.440707,160.037091 527.05396,163.656061 527.05396,168.115455 L527.05396,168.115455 Z" id="Shape" sketch:type="MSShapeGroup"></path>
            <path d="M527.05396,132.194465 L527.05396,138.471919 C527.05396,142.914162 523.440707,146.538848 518.981313,146.538848 L302.214747,146.538848 C297.755354,146.538848 294.130667,142.914162 294.130667,138.471919 L294.130667,132.194465 C294.130667,127.735071 297.755354,124.116101 302.214747,124.116101 L518.975596,124.116101 C523.440707,124.116101 527.05396,127.735071 527.05396,132.194465 L527.05396,132.194465 Z" id="Shape" sketch:type="MSShapeGroup"></path>
            <path d="M106.853273,128.323939 C106.853273,148.362626 117.384303,173.152283 131.214141,185.890141 C131.637212,186.353232 130.739616,185.489939 131.214141,185.890141 L130.842525,187.130768 C127.229273,197.964808 110.998222,201.778162 78.4274949,210.908485 C57.588404,216.751434 45.5937778,230.381172 39.0933535,244.279616 L39.0933535,71.8325657 C39.0933535,67.3788889 42.7008889,63.7656364 47.166,63.7656364 L255.225313,63.7656364 C259.684707,63.7656364 263.29796,67.3788889 263.29796,71.8325657 L263.29796,252.609535 C257.98099,236.144081 245.717657,217.929172 220.710747,210.908485 C187.213838,201.543758 170.988505,197.764707 168.009859,186.204586 C182.445717,173.895515 194.10303,149.877677 194.10303,129.827556 C194.10303,101.504687 172.51499,77.0066061 151.058444,77.0066061 C129.556162,77.0008889 106.853273,99.9839192 106.853273,128.323939 L106.853273,128.323939 Z" id="Shape" sketch:type="MSShapeGroup"></path>
            <path d="M540.449293,329.065273 L16.0245657,329.065273 C7.44880808,329.065273 0.479575758,322.250404 0.479575758,313.857596 L0.479575758,15.444101 C0.479575758,7.06272727 7.45452525,0.236424242 16.0245657,0.236424242 L540.449293,0.236424242 C549.019333,0.236424242 555.994283,7.06272727 555.994283,15.444101 L555.994283,313.851879 C555.994283,322.244687 549.019333,329.065273 540.449293,329.065273 L540.449293,329.065273 Z M16.0245657,15.1811111 C15.6129293,15.1811111 15.435697,15.4040808 15.4242626,15.4498182 L15.4242626,313.851879 C15.435697,313.886182 15.6129293,314.120586 16.0245657,314.120586 L540.449293,314.120586 C540.860929,314.120586 541.032444,313.886182 541.049596,313.846162 L541.049596,15.444101 C541.026727,15.4040808 540.860929,15.1811111 540.449293,15.1811111 L16.0245657,15.1811111 L16.0245657,15.1811111 Z" id="Shape" sketch:type="MSShapeGroup"></path>
        </g>
    </g>
</svg>