<?xml version="1.0" encoding="UTF-8" standalone="no"?>
<svg width="405px" height="405px" viewBox="0 0 405 405" version="1.1" xmlns="http://www.w3.org/2000/svg" xmlns:xlink="http://www.w3.org/1999/xlink" xmlns:sketch="http://www.bohemiancoding.com/sketch/ns">
    <!-- Generator: Sketch 3.4.4 (17249) - http://www.bohemiancoding.com/sketch -->
    <title>Oval 56 + Line + noun_9488_cc</title>
    <desc>Created with Sketch.</desc>
    <defs></defs>
    <g id="wires" stroke="none" stroke-width="1" fill="none" fill-rule="evenodd" sketch:type="MSPage">
        <g id="Artboard-5" sketch:type="MSArtboardGroup" transform="translate(-476.000000, -89.000000)">
            <g id="Oval-56-+-Line-+-noun_9488_cc" sketch:type="MSLayerGroup" transform="translate(476.000000, 89.000000)">
                <path d="M202.5,404.5 C314.061519,404.5 404.5,314.061519 404.5,202.5 C404.5,90.9384805 314.061519,0.5 202.5,0.5 C90.9384805,0.5 0.5,90.9384805 0.5,202.5 C0.5,314.061519 90.9384805,404.5 202.5,404.5 L202.5,404.5 Z M202.5,373.5 C108.059308,373.5 31.5,296.940692 31.5,202.5 C31.5,108.059308 108.059308,31.5 202.5,31.5 C296.940692,31.5 373.5,108.059308 373.5,202.5 C373.5,296.940692 296.940692,373.5 202.5,373.5 L202.5,373.5 Z" id="Shape" opacity="0.300000012" fill="#F02F23" sketch:type="MSShapeGroup"></path>
                <path d="M60.5398449,82.4601551 L322.968892,344.889202 L344.889202,322.968892 L82.4601551,60.5398449 L60.5398449,82.4601551 L60.5398449,82.4601551 Z" id="Shape" opacity="0.300000012" fill="#F02F23" sketch:type="MSShapeGroup"></path>
                <g id="noun_9488_cc" transform="translate(26.000000, 54.000000)">
                    <g id="Group">
                        <g></g>
                        <g id="Shape" sketch:type="MSShapeGroup">
                            <path d="M351.154938,54.9515464 C353.760588,52.7680412 351.427876,46.6687835 350.44166,44.3251546 C350.052268,43.3971649 349.502753,42.6838866 348.931402,42.1634845 C349.859392,41.4174536 350.285175,40.5222165 349.575536,38.9610103 L344.775464,27.1955567 C344.509804,26.2020619 341.576629,15.4046289 339.793433,11.1831856 C338.778103,8.79224742 336.914845,7.28198969 334.560299,7.71869072 L334.418371,7.39116495 C333.002732,4.06495876 329.600103,-0.141927835 325.560619,1.86325773 L324.727247,2.20897938 L324.468866,2.05249485 C324.337856,1.95059794 324.108588,1.76863918 323.777423,1.56484536 C317.616299,-2.29631959 311.571629,2.31087629 307.601289,6.93626804 C306.313021,8.43560825 305.283134,9.82213402 304.791845,10.5099381 L180.808784,62.0734124 C180.182845,62.335433 179.89899,63.0741856 180.182845,63.6819278 C180.452144,64.2641959 180.688691,64.8246289 180.888845,65.3814227 L134.351072,85.0948351 C133.190175,83.7738144 131.545268,82.1325464 130.559052,82.5364948 C130.559052,82.5364948 84.3597216,101.314639 56.0251031,112.876299 C55.0388866,111.850052 53.8998247,111.027598 52.4114021,110.678237 C50.0568557,110.128722 49.6237938,111.689928 48.6011856,109.266237 C47.946134,107.723227 46.388567,107.497598 45.0930206,108.163567 C43.710134,108.625742 42.796701,109.906732 43.4481134,111.449742 C44.4707216,113.866155 43.0696392,113.087371 41.8286804,115.143505 C41.0680928,116.391742 40.8497423,117.716402 40.8679381,119.070175 C36.9230722,120.693247 34.5248557,121.683103 34.3683711,121.763165 C31.624433,123.193361 26.475,126.854371 26.3621856,134.220062 L26.3476289,135.602948 C25.8017526,137.859237 23.8256804,139.795278 21.7113196,140.592258 C15.6739278,142.859464 14.0435773,142.677505 8.64304124,141.585753 C1.10630928,140.057299 -2.20897938,146.454969 1.56848454,149.431814 C4.44343299,151.695381 14.618567,151.688103 18.9673814,152.459608 C26.1656701,153.72968 26.8534742,154.417485 29.7211443,161.295526 C30.8856804,164.097691 31.6608247,166.579608 31.708134,166.561412 C32.3049588,168.675773 32.7707732,170.877474 32.9454536,173.028227 C33.5168041,179.924464 27.4357423,185.215825 22.7848763,189.357206 C13.7306082,193.374856 -0.505845361,198.513371 4.87649485,211.840031 C6.00827835,214.645835 7.93704124,215.413701 10.8665773,214.911495 C14.8769485,214.223691 18.9419072,212.404103 22.7848763,211.101278 C30.5472371,208.917773 37.916567,206.843443 45.5770309,211.66899 C49.128866,214.019897 51.4834124,217.298794 52.7898763,221.953299 C56.0360206,235.756691 54.0126392,253.548619 53.7542577,255.095268 C53.1938247,258.486979 54.4165876,262.297196 58.4924639,260.477608 L60.5304021,259.618763 C60.1919588,260.022711 59.8244021,260.514 59.6351649,261.012567 C59.0929278,262.442763 57.9393093,268.669392 56.9712887,275.740309 C54.5730722,293.175598 47.8151237,337.68999 61.5530103,350.812856 C62.8194433,352.243052 64.8537423,353.229268 66.7315567,352.556021 L78.2022371,349.288041 C78.2022371,349.288041 143.026866,329.370835 150.436227,327.074515 C157.154144,324.992907 157.241485,314.024433 156.426309,308.274536 C156.306216,307.051773 151.873701,262.573773 150.789227,254.665845 C149.690196,246.612351 147.46666,229.420887 148.449237,217.025856 C148.663948,214.35834 149.799371,211.912814 151.447918,209.678361 L152.332237,208.553856 C154.08268,206.494082 156.255268,204.674495 158.467887,203.102371 C163.293433,199.707021 168.006165,197.843763 168.006165,197.843763 L196.748371,185.674361 C218.092134,176.638289 218.747186,162.176206 215.333639,153.540443 C211.639876,144.191402 206.883474,134.074495 212.68068,125.897268 C212.757103,125.820845 212.81533,125.729866 212.888113,125.657082 C214.136351,124.008536 216.014165,122.654763 217.702742,121.941485 L283.073247,94.2546392 C284.878278,93.5158866 285.689814,91.6744639 285.780794,89.7966495 L288.26999,88.7412887 L344.298732,65.0175052 C348.418278,63.663732 352.286722,60.1373711 351.220443,55.2354021 L351.154938,54.9515464 L351.154938,54.9515464 Z M199.608763,175.269959 C197.163237,176.609175 192.290381,178.676227 177.333371,185.008392 C169.934928,182.555588 163.642794,177.125938 160.411206,169.494588 C157.412526,162.409113 157.583567,154.777763 160.352979,148.096237 L179.233021,140.104608 L181.875062,139.107474 C181.875062,139.107474 182.901309,138.725361 184.557134,138.477897 C195.893165,136.760206 203.418979,144.799144 207.443907,154.930608 C211.319629,164.690876 203.728309,173.523155 199.608763,175.269959 L199.608763,175.269959 Z"></path>
                            <path d="M48.8231753,205.143948 C47.4621237,204.277825 43.4335567,202.891299 41.9633299,203.146041 C36.1879588,204.168649 24.3060515,211.541619 20.7251031,202.705701 C19.5860412,199.899897 19.6479072,196.009619 20.4958351,192.989103 L14.9824845,195.471021 C6.88895876,199.110196 4.73456701,205.089361 7.09639175,210.937515 C7.73324742,212.502361 8.42105155,212.899031 10.4589897,212.54967 C14.3565464,211.865505 18.3487216,210.067753 22.0825155,208.804959 C30.5945464,206.439495 38.4588041,204.361526 46.8616598,209.649247 C50.9448144,212.342237 53.6487216,216.152454 55.1043918,221.327361 C58.474268,235.592928 56.3926598,253.810639 56.1197216,255.481021 C55.9304845,256.612804 55.4901443,259.269402 57.5353608,258.286825 L63.5581959,255.735763 C63.5581959,247.114557 63.5145258,240.134619 63.394433,236.258897 C62.8995052,220.475794 58.1503814,211.144948 48.8231753,205.143948 L48.8231753,205.143948 Z" fill="#175FED"></path>
                            <path d="M63.5436392,259.93901 C62.8085258,260.623175 62.0297423,261.409237 61.858701,261.856856 C59.6424433,267.650423 56.5782577,299.009196 56.2070619,304.085845 C55.2681546,316.928495 55.129866,330.633629 57.6372577,338.381433 C59.5441856,344.273258 61.4511134,347.26466 62.9104227,348.800392 C62.6811546,347.719557 62.6847938,346.427649 62.7976082,345.019289 C62.8194433,343.403495 63.4708557,292.582412 63.5436392,259.93901 L63.5436392,259.93901 Z" fill="#175FED"></path>
                            <path d="M66.4840928,343.454443 C66.5132062,341.321887 67.6486289,253.05733 67.0809175,234.697691 C66.5896289,218.896392 61.9460412,209.208907 52.6297526,203.226103 C45.6097835,198.713526 38.8700309,196.358979 24.6408557,198.968268 C23.7856495,199.117474 22.9741134,199.117474 22.2863093,198.924598 C22.362732,199.88534 22.5592474,200.871557 22.9340825,201.810464 C24.295134,205.165784 27.2865361,204.91832 30.2015155,204.234155 C33.0655464,203.546351 39.0738247,201.235474 41.5484639,200.795134 C43.9139278,200.383907 48.5866289,202.167103 50.1150825,203.135124 C60.3120515,209.696557 65.2722474,219.893526 65.7853711,236.186113 C66.3603608,254.785938 65.1885464,345.135742 65.1885464,345.135742 C64.9811134,347.581268 64.952,350.146887 67.6195155,349.790247 L67.9761546,349.699268 C66.5204845,348.287268 66.2948557,345.936361 66.4840928,343.454443 L66.4840928,343.454443 Z" fill="#175FED"></path>
                            <path d="M346.773371,40.7260103 C346.999,40.5840825 347.26466,40.4203196 347.497567,40.2456392 C347.48301,40.1874124 344.462495,32.7634948 343.126918,29.4845979 C342.912206,29.7611753 342.595598,29.9795258 342.308103,30.150567 L346.325753,39.6269794 C346.464041,39.9581443 346.613247,40.3293402 346.773371,40.7260103 L346.773371,40.7260103 Z" fill="#175FED"></path>
                            <path d="M309.217082,8.66851546 L322.059732,3.32256701 C317.368835,0.807896907 312.590598,4.69089691 309.217082,8.66851546 L309.217082,8.66851546 Z" fill="#175FED"></path>
                            <path d="M148.52566,90.0914227 L173.141041,79.6688247 C179.89899,76.808433 182.541031,72.9181546 181.540258,67.6959381 L136.054206,86.961732 C139.271237,89.9021856 144.304216,91.7035773 148.52566,90.0914227 L148.52566,90.0914227 Z" fill="#175FED"></path>
                            <path d="M337.59901,12.1111753 C337.144113,11.0558144 336.456309,10.1933299 335.553794,10.0514021 L341.336443,23.6946701 C340.262887,19.9608763 338.698041,14.7350206 337.59901,12.1111753 L337.59901,12.1111753 Z" fill="#175FED"></path>
                            <path d="M2.50739175,145.639794 C2.0888866,148.234526 5.68075258,148.802237 8.0753299,148.973278 C5.57157732,148.252722 3.40626804,147.204639 2.50739175,145.639794 L2.50739175,145.639794 Z" fill="#175FED"></path>
                            <path d="M15.3791546,147.797825 L14.0908866,144.762753 C12.5478763,144.788227 11.0703711,144.639021 9.75662887,144.329691 C8.5302268,144.038557 6.13564948,143.645526 4.42523711,144.031278 C4.45071134,146.640567 15.0734639,147.761433 15.3791546,147.797825 L15.3791546,147.797825 Z" fill="#175FED"></path>
                            <path d="M54.3983918,114.59399 C50.6573196,110.703711 48.7795052,115.667546 46.4577113,110.190588 C46.4031237,110.194227 46.2648351,110.245175 45.7808247,110.448969 C45.7044021,110.478082 45.6862062,110.474443 45.6461753,110.510835 C46.2648351,111.973784 46.7342887,113.662361 45.3332062,114.896041 C44.7509381,115.405526 44.2887629,115.678464 43.8666186,116.373546 C43.5245361,116.941258 43.1970103,117.829216 43.2370412,119.230299 C45.1548866,118.870021 47.1891856,118.262278 49.2307629,117.399794 C51.1413299,116.591897 52.8808557,115.634794 54.3983918,114.59399 L54.3983918,114.59399 Z" fill="#175FED"></path>
                            <path d="M30.9293505,143.307082 C31.293268,151.473392 33.7970206,159.428629 36.6683299,167.034505 L62.8922268,155.924103 L50.002268,125.48968 L52.5897216,126.293938 L64.7955155,155.116206 L65.6943918,154.737732 L52.804433,124.306948 L55.3918866,125.103928 L67.5976804,153.929835 L68.4965567,153.551361 L55.6065979,123.124216 L58.1976907,123.921196 L70.4034845,152.743464 L71.2987216,152.36499 L58.4087629,121.926928 L60.9962165,122.731186 L73.2056495,151.557093 L74.1045258,151.178619 L61.2182062,120.740557 L63.8020206,121.541175 L76.0078144,150.367082 L76.9066907,149.988608 L64.0203711,119.557825 L66.6114639,120.358443 L78.8172577,149.184351 L79.716134,148.802237 L66.8261753,118.371454 L69.4136289,119.172072 L81.6230619,147.99434 L82.518299,147.615866 L69.6319794,117.185082 L72.2157938,117.98934 L84.4215876,146.815247 L85.3204639,146.429495 L72.4377835,115.995072 L75.0252371,116.795691 L87.2310309,145.621598 L88.1335464,145.235845 L75.2435876,114.81234 L77.8310412,115.612959 L90.0404742,144.427948 L90.9393505,144.053113 L78.0493918,113.615052 L80.6404845,114.419309 L92.8462784,143.237938 L93.7415155,142.859464 L80.8588351,112.42868 L83.4462887,113.232938 L95.6484433,142.051567 L96.5509588,141.669454 L83.6646392,111.242309 L86.2520928,112.046567 L98.4578866,140.865196 L99.3567629,140.486722 L86.4704433,110.055938 L89.0578969,110.860196 L101.263691,139.682464 L102.166206,139.296711 L89.2762474,108.869567 L91.863701,109.673825 L104.065856,138.488814 L104.964732,138.11034 L92.0820515,107.679557 L94.6695052,108.483814 L106.875299,137.295165 L107.774175,136.92033 L94.8878557,106.493186 L97.4753093,107.293804 L109.681103,136.112433 L110.579979,135.733959 L97.6900206,105.306814 L100.281113,106.107433 L112.486907,134.926062 L113.382144,134.543948 L100.495825,104.120443 L103.086918,104.921062 L115.292711,133.736052 L277.67999,64.9338041 C279.066515,62.5792577 287.192794,50.602732 315.89133,38.4551649 L340.550381,28.010732 L332.220309,8.33735052 C331.390577,6.40494845 329.265299,2.75849485 326.535918,4.06859794 L182.824887,63.831134 C186.100144,72.1502887 183.050515,78.0785052 174.07267,81.8814433 L149.413619,92.3222371 C149.413619,92.3222371 148.864103,92.547866 147.932474,92.7407423 C142.74301,93.8252165 137.684557,92.0165464 133.907093,88.2390825 L130.722814,85.0584433 C124.765485,87.4784948 83.9011856,104.094969 57.6336186,114.808701 L57.8155773,115.052526 C55.2863505,116.970371 53.1210412,118.360536 50.1623918,119.612412 C47.072732,120.918876 44.4452474,121.522979 41.1517938,121.974237 L41.0862887,121.555732 C36.5555155,123.353485 31.8391443,125.085732 29.7939278,129.387237 C29.8121237,129.434546 29.8230412,129.474577 29.8375979,129.521887 C31.1913711,134.940619 30.6782474,137.728227 30.9293505,143.307082 L30.9293505,143.307082 Z M187.559454,69.9012784 L330.49534,10.7392062 C331.965567,10.1314639 332.875361,12.3368041 331.405134,12.9481856 L188.469247,72.1029794 C186.999021,72.7216392 186.081948,70.5090206 187.559454,69.9012784 L187.559454,69.9012784 Z" fill="#175FED"></path>
                            <path d="M27.1919175,152.605175 C28.1126289,153.343928 29.0260619,154.603082 29.881268,156.106062 C27.5412784,148.634835 26.7079072,144.224155 26.4568041,140.060938 C24.0731443,142.597443 20.3247938,144.074948 16.6055567,144.573515 L18.9127938,150.028639 C22.3736495,150.585433 25.7034948,151.415165 27.1919175,152.605175 L27.1919175,152.605175 Z" fill="#175FED"></path>
                            <path d="M156.317134,180.230155 C156.331691,180.215598 163.067804,188.858639 173.836124,186.216598 C167.016309,183.217918 161.317361,177.759155 158.213144,170.426216 C155.45101,163.901175 155.167155,156.946711 156.972186,150.567237 C149.235299,158.71899 150.490814,170.877474 156.317134,180.230155 L156.317134,180.230155 Z" fill="#175FED"></path>
                            <path d="M209.074258,127.465753 L189.142495,135.908639 C198.935515,136.65467 205.799,144.362443 209.656526,154.03901 C214.136351,165.331371 205.584289,175.273598 200.63501,177.417072 C198.131258,178.778124 193.149227,180.888845 177.791907,187.39933 C172.08932,189.812103 165.673454,189.375402 160.505825,186.496814 C160.873381,187.210093 161.160876,187.963402 161.321,188.742186 C162.034278,192.064753 160.327505,196.464515 158.096691,200.37299 C161.128124,198.327773 164.312402,196.701062 167.10001,195.598392 L195.809464,183.439907 C215.930464,174.91332 216.050557,161.841402 213.110103,154.39201 C209.467289,145.17034 205.242206,135.86133 209.074258,127.465753 L209.074258,127.465753 Z" fill="#175FED"></path>
                            <path d="M134.780495,159.828938 C134.030825,169.887619 137.906546,175.077082 146.058299,178.803598 C143.40534,165.880887 144.049474,154.399289 151.553454,143.015948 C144.173206,145.74533 135.384598,151.626237 134.780495,159.828938 L134.780495,159.828938 Z" fill="#175FED"></path>
                            <path d="M137.189629,209.478206 C138.408753,207.451186 145.083,198.633464 147.896082,195.318175 C149.995887,193.058247 151.593485,190.754649 152.710711,189.524608 C150.938433,186.362165 148.423763,183.82566 145.814474,181.314629 C143.201546,179.935381 140.763299,179.007392 138.452423,176.965814 C134.878753,173.799732 131.734505,168.526567 132.393196,159.639701 C133.179258,149.00967 144.922876,142.189856 154.028093,139.704299 L197.618134,121.242763 C200.271093,120.118258 200.958897,117.119577 202.134351,114.794144 C204.769113,109.60832 209.081536,106.675144 214.463876,104.720907 L279.881691,77.0231443 C279.40132,75.7094021 278.910031,74.4138557 278.418742,73.1219485 L277.858309,71.6917526 L276.610072,71.1859072 L274.881464,70.4871856 L272.701598,69.6101443 L34.9943093,170.338876 C36.2061546,177.802825 34.0008144,182.002433 27.2537835,188.469247 C26.6351237,189.062433 26.0564948,189.601031 25.5724845,190.055928 C24.6845258,191.158598 23.0541753,193.334825 22.5410515,194.896031 C22.4828247,195.209 22.4282371,195.536526 22.384567,195.885887 C22.4427938,196.515464 22.9595567,196.84299 24.2077938,196.613722 C39.0119588,193.898897 46.366732,196.358979 53.9180206,201.213639 C64.1259072,207.775072 68.958732,218.350515 69.4609381,234.628546 C70.0432062,253.221093 68.8677526,343.578175 68.8677526,343.578175 C68.6603196,345.987309 68.7804124,348.603876 71.5643814,348.662103 L77.5253505,346.958969 C78.657134,346.60233 124.969278,332.387711 143.168794,326.787021 C142.517381,319.250289 137.389784,260.477608 135.038876,237.092268 C133.375773,220.490351 134.551227,213.823381 137.189629,209.478206 L137.189629,209.478206 Z M169.723856,119.146598 C172.023814,118.16766 174.684052,119.252134 175.659351,121.555732 C176.638289,123.855691 175.561093,126.508649 173.253856,127.491227 C170.950258,128.470165 168.286381,127.392969 167.314722,125.085732 C166.339423,122.782134 167.416619,120.118258 169.723856,119.146598 L169.723856,119.146598 Z M34.9215258,194.473887 C33.2074742,195.205361 31.2241237,194.397464 30.4999278,192.687052 C29.775732,190.976639 30.5763505,188.993289 32.2904021,188.269093 C34.0080928,187.544897 35.9841649,188.341876 36.7156392,190.066845 C37.4361959,191.773619 36.6355773,193.756969 34.9215258,194.473887 L34.9215258,194.473887 Z M48.0043608,177.970227 C46.2903093,178.698062 44.3105979,177.897443 43.5827629,176.179753 C42.8549278,174.462062 43.6591856,172.482351 45.3732371,171.758155 C47.0909278,171.03032 49.067,171.834577 49.7948351,173.552268 C50.5153918,175.26632 49.7184124,177.242392 48.0043608,177.970227 L48.0043608,177.970227 Z M135.446464,184.040371 C136.279835,182.988649 137.382505,182.122526 138.703526,181.565732 C142.906773,179.775258 147.746876,181.744052 149.526433,185.94366 C151.30599,190.128711 149.344474,194.979732 145.144866,196.762928 C142.284474,197.978412 139.129309,197.447093 136.840268,195.660258 C132.320412,196.198856 126.301216,196.493629 125.802649,190.692784 C125.518794,187.472113 128.004351,184.695423 131.250495,184.400649 L135.446464,184.040371 L135.446464,184.040371 Z M68.1435567,181.733134 C66.8662062,182.275371 65.388701,181.674907 64.8428247,180.408474 C64.3042268,179.120206 64.9046907,177.649979 66.1820412,177.107742 C67.4630309,176.565505 68.9368969,177.165969 69.479134,178.44332 C70.017732,179.72067 69.4209072,181.190897 68.1435567,181.733134 L68.1435567,181.733134 Z M137.84468,328.213577 C135.68301,328.974165 91.7035773,342.391804 90.2551856,342.843062 C87.7114021,343.774691 84.2760206,343.64732 83.1042062,340.590412 C79.279433,334.236412 79.8107526,334.782289 72.7471134,332.162082 C72.0884227,331.929175 71.4843196,331.634402 70.953,331.154031 C69.8394124,329.840289 69.664732,327.962474 69.8794433,326.321206 L70.9020515,216.683773 L70.8183505,165.746237 C70.5963608,163.442639 72.5142062,161.080814 74.1118041,159.727041 C85.9900722,151.156784 100.484907,146.888031 115.132588,147.968866 C118.608,148.227247 124.765485,148.234526 125.686196,152.699794 C125.835402,153.420351 125.900907,154.242804 125.991887,155.105289 C126.970825,164.669041 127.687742,174.367443 128.517474,183.916639 C126.002804,185.49968 124.328784,187.635876 124.609,190.809237 C124.907412,194.291928 126.606907,195.656619 129.63834,196.722897 C133.321186,238.930052 137.025866,281.235464 140.726907,323.449897 C141.119938,325.571536 139.948124,327.482103 137.84468,328.213577 L137.84468,328.213577 Z" fill="#175FED"></path>
                            <path d="M280.664113,79.2939897 L215.333639,106.959 C201.311897,111.922835 205.395052,120.558598 198.557041,123.455381 L155.392784,141.734959 C145.927289,154.228247 145.599763,166.601443 148.991474,180.987103 C151.564371,183.47266 154.646753,187.348381 155.057979,188.971454 C155.250856,189.706567 154.941526,190.39801 154.614,191.034866 C152.870835,192.91268 151.429722,195.052515 149.675639,196.933969 C146.869835,200.245619 140.359351,208.866825 139.245763,210.715526 C137.047701,214.325588 135.763072,220.268361 137.429814,236.852082 C139.733412,259.789804 144.700887,316.706505 145.516062,326.070103 L149.726588,324.778196 C155.916825,322.853072 154.144546,309.18433 154.053567,308.558392 C154.053567,308.558392 149.511876,262.992278 148.416485,254.964258 C147.324732,246.954433 145.057526,229.504588 146.065577,216.825701 C146.338515,213.393959 147.936113,210.195124 150.261546,207.349289 L151.527979,205.700742 C151.527979,205.700742 153.755155,203.025948 155.80401,199.561454 C158.333237,195.289062 160.625918,190.831072 157.627237,186.307577 C153.427629,179.98633 151.156784,177.246031 149.508237,168.988742 C147.881526,160.858825 151.167701,151.564371 157.838309,146.575062 L211.144948,123.993979 L211.27232,123.939392 C212.90267,121.992433 215.260856,120.365722 217.433443,119.441371 L282.112505,92.0529381 C282.112505,92.0529381 282.196206,92.0056289 282.334495,91.9110103 C283.568175,91.0303299 283.593649,89.4509278 283.218814,88.0898763 C282.549206,85.1239485 281.657608,82.1907732 280.664113,79.2939897 L280.664113,79.2939897 Z" fill="#175FED"></path>
                            <path d="M348.880454,55.7303299 C347.570351,49.711134 345.419598,43.6191546 344.120412,40.5549691 L339.989948,30.8165361 L316.81932,40.6386701 C307.615845,44.5325876 284.918309,55.7885567 279.390402,66.7861443 L275.893155,68.2672887 C277.698186,68.9696495 279.674258,69.832134 279.88533,70.3525361 C279.88533,70.3525361 280.201938,71.1385979 280.642278,72.2703814 C282.534649,77.1577938 284.285093,82.1944124 285.515134,87.3038144 L343.410773,62.7830515 L343.523588,62.7430206 C343.851113,62.6411237 349.943093,60.6141031 348.880454,55.7303299 L348.880454,55.7303299 Z" fill="#175FED"></path>
                            <path d="M132.047474,193.578649 L134.805969,193.349381 C134.627649,193.036412 134.467526,192.719804 134.325598,192.385 C133.510423,190.456237 133.481309,188.396464 134.09633,186.555041 L131.461567,186.78067 C129.445464,186.955351 128.026186,188.654845 128.18267,190.496268 C128.339155,192.330412 130.027732,193.756969 132.047474,193.578649 L132.047474,193.578649 Z" fill="#175FED"></path>
                            <path d="M100.488546,179.709753 C103.487227,178.43968 105.066629,175.226289 104.375186,172.154825 L92.3586289,177.246031 C94.0872371,179.869876 97.4971443,180.976186 100.488546,179.709753 L100.488546,179.709753 Z" fill="#175FED"></path>
                            <path d="M95.3172784,167.489402 C92.3185979,168.759474 90.7391959,171.972866 91.4306392,175.040691 L103.447196,169.953124 C101.725866,167.325639 98.3123196,166.222969 95.3172784,167.489402 L95.3172784,167.489402 Z" fill="#175FED"></path>
                            <path d="M137.826485,193.360299 C139.464113,194.961536 141.971505,195.521969 144.213237,194.568505 C147.197361,193.298433 148.591165,189.859412 147.328371,186.886206 C146.061938,183.902082 142.622918,182.501 139.635155,183.778351 C138.688969,184.171381 137.899268,184.782763 137.309722,185.543351 C136.778402,186.402196 136.338062,187.253763 136.141546,188.174474 C135.959588,189.237113 136.065124,190.372536 136.509103,191.435175 C136.836629,192.192124 137.287887,192.832619 137.826485,193.360299 L137.826485,193.360299 Z" fill="#175FED"></path>
                            <path d="M98.2249794,319.181144 C99.9499485,321.812268 103.359856,322.911299 106.358536,321.641227 C109.357216,320.374794 110.932979,317.165041 110.245175,314.100856 L98.2249794,319.181144 L98.2249794,319.181144 Z" fill="#175FED"></path>
                            <path d="M126.017361,182.697515 C124.634474,166.852546 123.688289,156.044196 123.615505,155.341835 C123.346206,152.743464 123.644619,151.957402 121.075361,151.229567 C112.497825,148.78768 98.7999691,150.734639 90.4626186,153.736959 C85.1639794,155.643887 80.1491959,158.311402 75.5820309,161.601216 C74.5630619,162.46734 73.2893505,163.882979 73.194732,165.345928 L73.1910928,165.487856 L73.2056495,165.669814 L73.2857113,216.687412 L72.2594639,326.495887 C72.2594639,326.495887 72.1684845,327.114546 72.2048763,327.787794 C72.241268,328.490155 72.3941134,329.101536 72.6706907,329.48001 C74.0972474,330.589959 77.6818351,330.851979 80.3639072,332.893557 C82.8130722,334.771371 83.7301443,337.053134 85.2658763,339.553247 C85.9172887,341.387392 88.0352887,341.125371 89.4691237,340.583134 C89.4691237,340.583134 134.853278,326.736072 137.044062,325.960928 C138.135814,325.582454 138.539763,324.80367 138.346887,323.759227 C138.346887,323.759227 131.767258,248.759464 127.382052,198.42967 C120.85701,195.60567 120.54768,186.740639 126.017361,182.697515 L126.017361,182.697515 Z M89.600134,177.122299 C87.6531753,172.52966 89.7966495,167.238299 94.3892887,165.294979 C98.9710103,163.35166 104.269649,165.495134 106.216608,170.084134 C108.159928,174.673134 106.012814,179.968134 101.423814,181.911454 C96.8348144,183.851134 91.5398144,181.711299 89.600134,177.122299 L89.600134,177.122299 Z M107.290165,323.842928 C102.701165,325.782608 97.4061649,323.642773 95.4628454,319.046495 C93.5231649,314.468412 95.6666392,309.173412 100.255639,307.226454 C104.841,305.286773 110.136,307.426608 112.082959,312.015608 C114.022639,316.608247 111.879165,321.903247 107.290165,323.842928 L107.290165,323.842928 Z" fill="#175FED"></path>
                            <path d="M101.183629,309.428155 C98.1849485,310.694588 96.6055464,313.90434 97.2969897,316.975804 L109.313546,311.888237 C107.588577,309.264392 104.17867,308.165361 101.183629,309.428155 L101.183629,309.428155 Z" fill="#175FED"></path>
                        </g>
                    </g>
                </g>
            </g>
        </g>
    </g>
</svg>