<?xml version="1.0" encoding="UTF-8" standalone="no"?>
<svg width="219px" height="182px" viewBox="0 0 219 182" version="1.1" xmlns="http://www.w3.org/2000/svg" xmlns:xlink="http://www.w3.org/1999/xlink">
    <!-- Generator: Sketch 3.7 (28169) - http://www.bohemiancoding.com/sketch -->
    <title>Group</title>
    <desc>Created with Sketch.</desc>
    <defs></defs>
    <g id="Page-1" stroke="none" stroke-width="1" fill="none" fill-rule="evenodd">
        <g id="Group" transform="translate(109.500000, 91.000000) scale(-1, 1) translate(-109.500000, -91.000000) ">
            <path d="M211.462587,38.45504 C210.296187,37.415 209.094147,36.50456 207.853227,35.70752 C212.155947,27.45524 214.637787,14.69612 203.362587,5.20616 C194.034627,-2.65408 179.846667,0.86456 170.440947,5.95136 C159.671187,-1.84408 145.055547,5.33252 138.018267,10.91504 C81.8625871,55.48772 70.1791471,64.7768 37.5393871,85.07864 C13.6832671,99.92432 12.9607471,114.32612 14.1109471,120.63116 C-3.59241289,133.33844 -0.948572894,147.20888 2.54414711,154.69976 C3.93734711,157.71296 8.71958711,165.24272 21.4787071,165.24272 C25.3634671,165.24272 29.9966671,164.52344 35.4884671,162.7868 C38.2716271,175.2284 47.6125471,182 62.3837071,182 C78.9887071,182 100.149147,173.28116 113.753907,164.63684 C137.334627,149.65184 194.135067,111.32912 212.246667,79.05548 C217.777347,69.20912 223.826427,49.57796 211.462587,38.45504 L211.462587,38.45504 Z M41.6639071,91.69796 C74.6859871,71.15636 86.4309871,61.8284 142.878267,17.02568 C143.004627,16.92524 154.532547,7.94072 163.228707,10.90208 C157.445307,15.74912 151.775307,20.45684 146.166867,25.06412 C144.511227,26.06204 143.092107,27.25112 141.851187,28.60544 C131.272587,37.24976 121.043907,45.42752 111.161907,53.14844 C106.275987,54.3764 101.059587,57.39932 96.3777871,64.52408 C87.7464271,71.08184 79.4455471,77.2184 71.4816271,82.9532 C66.2555071,83.67572 61.8782671,86.10572 58.2203071,90.3566 C57.1932271,91.54568 56.3605471,92.79956 55.6639471,94.0664 C43.2968671,102.54548 31.8823471,109.87112 21.6050671,115.88456 C22.0230271,110.6714 25.5416671,101.72252 41.6639071,91.69796 L41.6639071,91.69796 Z M205.449147,75.24524 C188.199387,105.9734 132.662547,143.39864 109.577547,158.06612 C96.9221071,166.10456 77.4205471,174.21752 62.3837071,174.21752 L62.3837071,174.21752 C49.5111871,174.21752 43.1316271,167.68568 42.4382671,156.0314 C41.7902671,145.2098 56.0689471,136.26092 63.6246271,131.41388 C107.678907,103.0898 119.893707,92.97776 146.636667,70.82912 C152.951427,65.5868 160.115067,59.66408 168.720507,52.63976 C179.328267,43.98572 187.933707,39.78344 195.058467,39.78344 C196.360947,39.78344 197.601867,39.97136 198.816867,40.26296 C198.881667,40.27592 198.943227,40.30184 199.008027,40.32776 C199.996227,40.58048 200.968227,40.92068 201.891627,41.36456 C202.322547,41.56544 202.740507,41.76956 203.158467,42.00932 C203.463027,42.18752 203.754627,42.36572 204.055947,42.5666 C204.804387,43.05908 205.549587,43.6034 206.272107,44.2514 C214.968267,52.09544 209.538027,67.94228 205.449147,75.24524 L205.449147,75.24524 Z" id="Page-1" fill="#0000FF"></path>
            <path d="M35.3491471,125.43908 C34.4387071,125.22524 33.6675871,124.66796 33.1718671,123.87092 C32.6923471,123.08684 32.5530271,122.16344 32.7668671,121.26272 C33.1459471,119.69456 34.5521071,118.58 36.1850671,118.58 C36.4637071,118.58 36.7293871,118.60592 36.9950671,118.68044 C44.5118671,120.45272 49.7023471,120.4916 52.2457471,118.81976 C54.4230271,117.39092 55.0807471,114.4166 55.9166671,109.67 C56.6748271,105.38024 57.6111871,100.04072 61.1816671,95.9 C64.8882271,91.59728 69.2557471,89.5982 74.9127871,89.5982 C77.3039071,89.5982 79.5589471,89.95136 81.5450671,90.25592 C85.9352671,90.93956 88.7346271,91.09184 90.7077871,89.76344 C94.0352671,87.5084 94.8355471,84.1064 95.8464271,79.80044 C96.5689471,76.6868 97.3919071,73.14548 99.4525471,69.94112 C106.894827,58.36136 115.590987,59.05796 122.096907,59.4014 C123.386427,59.46296 124.513947,59.5148 125.537787,59.5148 C129.121227,59.5148 131.865507,58.89272 134.548227,55.81796 C135.497547,54.74228 136.372347,52.21184 137.548467,48.66728 C139.651227,42.28772 142.534827,33.55592 150.051627,30.39044 C152.672787,29.29208 156.204387,28.01228 160.153947,28.01228 C163.150947,28.01228 166.063707,28.72184 169.063947,30.1766 C169.899867,30.5816 170.531667,31.29116 170.823267,32.16272 C171.111627,33.03752 171.063027,33.97388 170.658027,34.8098 C169.835067,36.4784 167.670747,37.2398 165.963267,36.41684 C162.480267,34.71908 157.114827,34.94912 152.760267,36.78296 C148.178907,38.72048 146.066427,45.14864 144.206667,50.8316 C142.913907,54.74228 141.802587,58.1216 139.852107,60.35072 C135.131427,65.76476 129.626667,66.46136 125.359587,66.46136 C124.083027,66.46136 122.855067,66.3998 121.701627,66.335 C120.399147,66.26048 119.197107,66.20864 118.082547,66.20864 C113.199867,66.20864 109.363707,67.44956 105.375267,73.66388 C103.972347,75.85412 103.350267,78.52388 102.679587,81.34592 C101.555307,86.19296 100.275507,91.69772 94.6443871,95.50796 C92.3666671,97.04048 89.8362271,97.75976 86.6577871,97.75976 C84.5193871,97.75976 82.4425471,97.44548 80.4434671,97.12796 C78.3698671,96.81044 76.5198271,96.54476 74.8253071,96.54476 C71.3325871,96.54476 68.8377871,97.6982 66.5082271,100.4198 C64.1819071,103.11548 63.5209471,106.88684 62.8275871,110.885 C61.9268671,116.07548 60.9905071,121.44092 56.1175471,124.62908 C54.9155071,125.4164 53.5871071,125.99636 52.0545871,126.3884 C47.9041471,127.4414 42.4998271,127.13684 35.3491471,125.43908 L35.3491471,125.43908 Z" id="Path" fill="#E9D500"></path>
        </g>
    </g>
</svg>