<?xml version="1.0" encoding="UTF-8" standalone="no"?>
<svg width="75px" height="75px" viewBox="0 0 75 75" version="1.1" xmlns="http://www.w3.org/2000/svg" xmlns:xlink="http://www.w3.org/1999/xlink">
    <!-- Generator: Sketch 3.7 (28169) - http://www.bohemiancoding.com/sketch -->
    <title>Page 1</title>
    <desc>Created with Sketch.</desc>
    <defs></defs>
    <g id="Page-1" stroke="none" stroke-width="1" fill="none" fill-rule="evenodd">
        <path d="M37.5,0 C16.789,0 0,16.789 0,37.5 C0,58.211 16.789,75 37.5,75 C58.211,75 75,58.211 75,37.5 C75,16.789 58.211,0 37.5,0 L37.5,0 Z M37.453,16.934 C38.293,16.024 39.316,15.559 40.492,15.559 C41.445,15.559 42.285,15.903 42.918,16.551 C43.55,17.2 43.875,18.024 43.875,19.008 C43.875,20.239 43.445,21.336 42.597,22.262 C41.726,23.219 40.707,23.707 39.57,23.707 C38.632,23.707 37.8,23.356 37.168,22.692 C36.539,22.039 36.222,21.188 36.222,20.164 C36.222,18.907 36.636,17.821 37.453,16.934 L37.453,16.934 Z M43.699,52.266 C40.589,55.188 38.371,57.012 36.918,57.84 C35.367,58.727 34.089,59.161 33.011,59.161 C31.941,59.161 31.07,58.805 30.418,58.102 C29.785,57.422 29.465,56.508 29.465,55.383 C29.465,52.508 31.093,45.829 34.445,34.969 C34.504,34.786 34.547,34.61 34.578,34.45 C34.453,34.504 34.308,34.579 34.14,34.684 C33.867,34.856 33.031,35.512 30.582,37.903 C30.207,38.27 29.625,38.301 29.211,37.981 L27.761,36.86 C27.531,36.68 27.386,36.414 27.359,36.125 C27.332,35.836 27.429,35.547 27.629,35.332 C29.882,32.848 31.988,31.047 33.886,29.973 C35.875,28.852 37.55,28.309 39.019,28.309 C39.968,28.309 40.734,28.543 41.297,29.012 C41.91,29.524 42.234,30.235 42.234,31.067 C42.234,31.614 41.976,33.039 40.058,39.461 C37.324,48.641 36.668,51.973 36.625,53.125 C37.14,52.821 38.367,51.95 40.98,49.493 C41.386,49.106 42.027,49.114 42.425,49.504 L43.711,50.754 C43.914,50.954 44.031,51.227 44.027,51.512 C44.023,51.797 43.906,52.071 43.699,52.266 L43.699,52.266 Z" fill="#0000FF"></path>
    </g>
</svg>